<svg width="512" height="512" viewBox="0 0 512 512" fill="none" xmlns="http://www.w3.org/2000/svg">
<rect width="512" height="512" fill="#E5E5E5"/>
<g clip-path="url(#clip0)">
<rect width="512" height="512" fill="white"/>
<path d="M296.711 223.922L296.359 214.254C296.359 199.254 292.141 186.012 283.703 174.527C277.375 165.973 268.938 161.695 258.391 161.695L256.984 161.871C246.789 161.871 238.82 165.914 233.078 174C229.445 179.039 227.629 187.535 227.629 199.488L227.277 202.828L226.75 218.297V234.117L226.926 235.875V239.215L227.102 240.973C227.102 242.145 227.102 243.316 227.102 244.488L227.453 249.586L227.805 256.266C227.805 265.992 230.5 273.785 235.891 279.645C241.281 285.504 248.254 288.434 256.809 288.434H259.973C271.457 288.434 281.008 282.047 288.625 269.273C294.133 260.133 296.887 246.363 296.887 227.965V225.855L296.711 223.922ZM230.266 333.609C230.266 343.219 232.844 351.422 238 358.219L245.734 365.953C249.953 370.172 252.062 373.688 252.062 376.5C252.062 380.25 249.426 382.828 244.152 384.234C238.996 385.641 227.805 386.344 210.578 386.344L206.008 386.52C186.203 386.52 173.957 385.758 169.27 384.234C164.699 382.711 162.414 380.309 162.414 377.027C162.414 375.738 165.285 370.582 171.027 361.559C176.77 352.535 180.344 343.219 181.75 333.609C182.219 330.445 182.453 305.309 182.453 258.199C182.453 211.09 181.926 185.074 180.871 180.152C179.816 175.113 176.066 170.426 169.621 166.09C163.176 161.637 159.953 157.418 159.953 153.434C159.953 149.449 162.707 146.52 168.215 144.645C183.684 139.488 198.215 136.91 211.809 136.91C215.441 136.91 218.078 137.789 219.719 139.547C221.477 141.188 223.176 143.297 224.816 145.875C226.457 148.453 228.098 149.742 229.738 149.742C231.379 149.742 234.426 148.453 238.879 145.875C243.449 143.297 248.605 140.836 254.348 138.492C260.207 136.031 267.883 134.801 277.375 134.801H282.121C290.559 134.801 299.055 137.086 307.609 141.656C316.281 146.109 323.605 152.027 329.582 159.41C341.652 174.527 347.688 193.336 347.688 215.836C347.688 243.609 339.602 266.227 323.43 283.688C314.992 292.828 305.852 299.273 296.008 303.023C286.164 306.656 275.031 308.473 262.609 308.473C262.492 308.473 258.039 308.004 249.25 307.066L241.691 306.188L238.176 305.66C232.902 305.66 230.266 314.977 230.266 333.609Z" fill="#584158"/>
</g>
<defs>
<clipPath id="clip0">
<rect width="512" height="512" fill="white"/>
</clipPath>
</defs>
</svg>
