<svg width="512" height="512" viewBox="0 0 512 512" fill="none" xmlns="http://www.w3.org/2000/svg">
<rect width="512" height="512" fill="#E5E5E5"/>
<g clip-path="url(#clip0)">
<rect width="512" height="512" fill="white"/>
<path d="M318.066 205.383L317.539 190.881C317.539 168.381 311.211 148.518 298.555 131.291C289.062 118.459 276.406 112.043 260.586 112.043L258.477 112.307C243.184 112.307 231.23 118.371 222.617 130.5C217.168 138.059 214.443 150.803 214.443 168.732L213.916 173.742L213.125 196.945V220.676L213.389 223.312V228.322L213.652 230.959C213.652 232.717 213.652 234.475 213.652 236.232L214.18 243.879L214.707 253.898C214.707 268.488 218.75 280.178 226.836 288.967C234.922 297.756 245.381 302.15 258.213 302.15H262.959C280.186 302.15 294.512 292.57 305.938 273.41C314.199 259.699 318.33 239.045 318.33 211.447V208.283L318.066 205.383ZM218.398 369.914C218.398 384.328 222.266 396.633 230 406.828L241.602 418.43C247.93 424.758 251.094 430.031 251.094 434.25C251.094 439.875 247.139 443.742 239.229 445.852C231.494 447.961 214.707 449.016 188.867 449.016L182.012 449.279C152.305 449.279 133.936 448.137 126.904 445.852C120.049 443.566 116.621 439.963 116.621 435.041C116.621 433.107 120.928 425.373 129.541 411.838C138.154 398.303 143.516 384.328 145.625 369.914C146.328 365.168 146.68 327.463 146.68 256.799C146.68 186.135 145.889 147.111 144.307 139.729C142.725 132.17 137.1 125.139 127.432 118.635C117.764 111.955 112.93 105.627 112.93 99.6504C112.93 93.6738 117.061 89.2793 125.322 86.4668C148.525 78.7324 170.322 74.8652 190.713 74.8652C196.162 74.8652 200.117 76.1836 202.578 78.8203C205.215 81.2812 207.764 84.4453 210.225 88.3125C212.686 92.1797 215.146 94.1133 217.607 94.1133C220.068 94.1133 224.639 92.1797 231.318 88.3125C238.174 84.4453 245.908 80.7539 254.521 77.2383C263.311 73.5469 274.824 71.7012 289.062 71.7012H296.182C308.838 71.7012 321.582 75.1289 334.414 81.9844C347.422 88.6641 358.408 97.541 367.373 108.615C385.479 131.291 394.531 159.504 394.531 193.254C394.531 234.914 382.402 268.84 358.145 295.031C345.488 308.742 331.777 318.41 317.012 324.035C302.246 329.484 285.547 332.209 266.914 332.209C266.738 332.209 260.059 331.506 246.875 330.1L235.537 328.781L230.264 327.99C222.354 327.99 218.398 341.965 218.398 369.914Z" fill="#584158"/>
</g>
<defs>
<clipPath id="clip0">
<rect width="512" height="512" fill="white"/>
</clipPath>
</defs>
</svg>
